<svg id="Group_29" data-name="Group 29" xmlns="http://www.w3.org/2000/svg" width="43.927" height="51.597" viewBox="0 0 43.927 51.597">
  <path id="Path_227" data-name="Path 227" d="M95.516,123.985h4.642a1.009,1.009,0,0,0,1.007-1.007v-4.651a1.009,1.009,0,0,0-1.007-1.007H95.516a1.01,1.01,0,0,0-1.01,1.007v4.651a1.01,1.01,0,0,0,1.01,1.007Zm1.007-4.651h2.627v2.636H96.524Z" transform="translate(-70.937 -107.21)" fill="#fa0"/>
  <path id="Path_228" data-name="Path 228" d="M92.319,123.985h4.642a1.009,1.009,0,0,0,1.007-1.007v-4.651a1.009,1.009,0,0,0-1.007-1.007H92.319a1.007,1.007,0,0,0-1.007,1.007v4.651A1.007,1.007,0,0,0,92.319,123.985Zm1.007-4.651h2.627v2.636H93.327Z" transform="translate(-76.884 -107.21)" fill="#fa0"/>
  <path id="Path_229" data-name="Path 229" d="M95.516,127.562h4.642a1.009,1.009,0,0,0,1.007-1.007V121.9a1.007,1.007,0,0,0-1.007-1.007H95.516a1.008,1.008,0,0,0-1.01,1.007v4.651a1.01,1.01,0,0,0,1.01,1.007Zm1.007-4.651h2.627v2.633H96.524Z" transform="translate(-70.937 -100.55)" fill="#fa0"/>
  <path id="Path_230" data-name="Path 230" d="M92.319,127.562h4.642a1.009,1.009,0,0,0,1.007-1.007V121.9a1.007,1.007,0,0,0-1.007-1.007H92.319a1,1,0,0,0-1.007,1.007v4.651A1.007,1.007,0,0,0,92.319,127.562Zm1.007-4.651h2.627v2.633H93.327Z" transform="translate(-76.884 -100.55)" fill="#fa0"/>
  <path id="Path_231" data-name="Path 231" d="M95.516,131.138h4.642a1.007,1.007,0,0,0,1.007-1.007v-4.651a1.009,1.009,0,0,0-1.007-1.007H95.516a1.01,1.01,0,0,0-1.01,1.007v4.651a1.008,1.008,0,0,0,1.01,1.007Zm1.007-4.648h2.627v2.633H96.524Z" transform="translate(-70.937 -93.891)" fill="#fa0"/>
  <path id="Path_232" data-name="Path 232" d="M96.962,131.138a1.007,1.007,0,0,0,1.007-1.007v-4.651a1.009,1.009,0,0,0-1.007-1.007H92.319a1.007,1.007,0,0,0-1.007,1.007v4.651a1,1,0,0,0,1.007,1.007Zm-3.635-4.648h2.627v2.633H93.327Z" transform="translate(-76.884 -93.891)" fill="#fa0"/>
  <path id="Path_233" data-name="Path 233" d="M129.19,163.369h-.936V132.928a1.007,1.007,0,0,0-1.007-1.007h-6.566v-12.5a1.007,1.007,0,0,0-1.007-1.007h-2.149v-3.623a1,1,0,0,0-1.007-1.007H100.678a1.007,1.007,0,0,0-1.007,1.007v3.623H97.525a1,1,0,0,0-1.007,1.007v19.4H90.988a1,1,0,0,0-1.007,1.007v23.54h-2.7a1.007,1.007,0,0,0,0,2.015H129.19a1.007,1.007,0,1,0,0-2.015Zm-27.5-47.567H115.51v2.616H101.686ZM92,140.836h4.522v22.533H92Zm6.537-20.4h20.134v42.936h-5.017v-6.651a1.009,1.009,0,0,0-1.007-1.007h-8.085a1.007,1.007,0,0,0-1.007,1.007v6.651H98.532Zm7.032,42.936v-5.644h6.07v5.644Zm15.117,0V133.936h5.558v29.433Z" transform="translate(-86.271 -113.787)" fill="#fa0"/>
</svg>
