<svg id="Group_32" data-name="Group 32" xmlns="http://www.w3.org/2000/svg" width="31.181" height="31.182" viewBox="0 0 31.181 31.182">
  <g id="Group_31" data-name="Group 31">
    <g id="Group_30" data-name="Group 30">
      <path id="Path_234" data-name="Path 234" d="M252.777,146.211h-4.313a1.241,1.241,0,0,1-.973-.464,1.267,1.267,0,0,1-.258-1.068,13.454,13.454,0,0,1,12.816-10.655c.1,0,.206.006.309.006s.209,0,.315-.006a13.324,13.324,0,0,1,4.4.847,1.218,1.218,0,1,0,.856-2.281q-.3-.112-.61-.215a8.282,8.282,0,1,0-9.914.006,15.833,15.833,0,0,0-10.558,11.8,3.7,3.7,0,0,0,3.618,4.462h4.313a1.218,1.218,0,0,0,0-2.436Zm1.734-20.464a5.847,5.847,0,1,1,6.133,5.839l-.286,0-.286,0A5.853,5.853,0,0,1,254.511,125.748Z" transform="translate(-244.767 -117.465)" fill="#00c3e6"/>
      <path id="Path_235" data-name="Path 235" d="M269.233,126.051a3.291,3.291,0,0,0-3-1.926H262.43a3.224,3.224,0,0,0-3.045,2.061c-.066.166-.143.375-.226.621h-7.974a1.21,1.21,0,0,0-.873.369l-2.092,2.155a1.219,1.219,0,0,0,0,1.7l2.132,2.167a1.217,1.217,0,0,0,.87.366h3.958a1.218,1.218,0,0,0,0-2.436h-3.449l-.939-.956.9-.933h8.374a1.218,1.218,0,0,0,1.182-.927,10.627,10.627,0,0,1,.4-1.256.8.8,0,0,1,.776-.5h3.8a.834.834,0,0,1,.776.481,7.894,7.894,0,0,1,.718,3.105,8.144,8.144,0,0,1-.713,3.163.835.835,0,0,1-.767.5H262.4a.864.864,0,0,1-.784-.541,7.925,7.925,0,0,1-.378-1.2,1.218,1.218,0,0,0-2.37.567,10.587,10.587,0,0,0,.5,1.568,3.288,3.288,0,0,0,3.034,2.046h3.852a3.268,3.268,0,0,0,3-1.96,10.53,10.53,0,0,0,.916-4.141A10.3,10.3,0,0,0,269.233,126.051Z" transform="translate(-238.982 -105.064)" fill="#00c3e6"/>
      <circle id="Ellipse_13" data-name="Ellipse 13" cx="1.218" cy="1.218" r="1.218" transform="translate(25.031 23.874)" fill="#00c3e6"/>
    </g>
  </g>
</svg>
